<svg version="1.1" id="Layer_1" xmlns="http://www.w3.org/2000/svg" xmlns:xlink="http://www.w3.org/1999/xlink" x="0px" y="0px"
	 width="100%" viewBox="0 0 512 512" enable-background="new 0 0 512 512" xml:space="preserve">
<path fill="#C2103A" opacity="1.000000" stroke="none" 
	d="
M513.000000,413.000000 
	C513.000000,446.312836 513.000000,479.625702 513.000000,512.938416 
	C342.333313,512.938293 171.666656,512.938293 1.000000,512.938293 
	C1.000000,479.896820 1.000000,446.917084 1.445648,413.468658 
	C172.260864,413.000000 342.630432,413.000000 513.000000,413.000000 
z"/>
<path fill="#D8271E" opacity="1.000000" stroke="none" 
	d="
M1.000000,65.000000 
	C1.000000,43.681248 1.000000,22.362497 1.000003,1.048357 
	C171.666672,1.052968 342.333344,1.052968 513.000000,1.052968 
	C513.000000,22.091518 513.000000,43.077099 512.531372,64.531342 
	C341.708466,65.000000 171.354233,65.000000 1.000000,65.000000 
z"/>
<path fill="#D52422" opacity="1.000000" stroke="none" 
	d="
M1.000000,65.468658 
	C171.354233,65.000000 341.708466,65.000000 512.531372,65.000000 
	C513.000000,85.354225 513.000000,105.708458 512.561951,126.531448 
	C503.902313,127.073715 495.680817,127.159637 487.459106,127.215195 
	C483.684113,127.240700 479.908386,127.169998 476.133636,127.207703 
	C469.728210,127.271683 463.323456,127.443527 456.918121,127.460854 
	C452.654297,127.472389 448.389740,127.209740 444.125885,127.220718 
	C437.720612,127.237221 431.315857,127.441742 424.910583,127.458847 
	C420.646667,127.470238 416.382050,127.211029 412.118134,127.221870 
	C405.712952,127.238152 399.308258,127.439972 392.903076,127.456856 
	C388.639099,127.468094 384.374390,127.212334 380.110413,127.223015 
	C373.705322,127.239059 367.300720,127.425987 360.895538,127.459465 
	C356.469543,127.482605 352.042511,127.305611 347.616638,127.332657 
	C341.533020,127.369843 335.449768,127.602142 329.366852,127.584793 
	C325.106262,127.572647 320.844543,127.322281 316.586945,127.106323 
	C312.255188,126.886597 307.927917,126.578705 303.585571,126.301208 
	C303.572510,126.293007 303.553467,126.268745 303.713440,126.025200 
	C303.465668,125.291084 303.057953,124.800514 302.650146,124.279221 
	C302.650024,124.248497 302.589081,124.256233 302.767944,123.973534 
	C303.155487,119.799782 301.848053,117.022629 297.694611,116.234337 
	C297.792816,116.059959 297.629913,116.425529 297.564880,116.157578 
	C297.204163,115.691124 296.908447,115.492622 296.670197,115.281952 
	C296.727631,115.269783 296.706512,115.385277 296.621307,115.121490 
	C296.234619,114.661270 295.933167,114.464828 295.693237,114.257652 
	C295.754822,114.246910 295.735016,114.370338 295.638458,114.110596 
	C295.231750,113.669075 294.921600,113.487297 294.668304,113.293739 
	C294.725159,113.281960 294.702026,113.395760 294.607544,113.138222 
	C294.194763,112.727669 293.876495,112.574654 293.728790,112.334473 
	C293.899353,112.247307 293.553802,112.433586 293.588806,112.056206 
	C292.631714,111.251816 291.639618,110.824814 290.785034,110.214912 
	C290.922546,110.032021 290.629120,110.383575 290.674286,110.094856 
	C289.984131,109.599586 289.248840,109.393036 288.142639,109.175766 
	C275.935394,104.091690 259.324738,106.911987 251.046997,122.174286 
	C247.664764,125.525612 245.016525,129.032288 239.558655,128.675583 
	C231.067627,128.120667 222.536453,128.100784 214.020752,128.023117 
	C203.363113,127.925926 192.703903,127.999733 182.045380,127.999718 
	C171.386856,127.999702 160.728317,127.999695 150.069794,127.999680 
	C139.411270,127.999672 128.752396,128.049469 118.094337,127.978859 
	C112.684814,127.943031 107.272583,127.480095 101.868996,127.586563 
	C94.471581,127.732307 87.076546,128.601425 79.688858,128.506790 
	C66.248459,128.334641 52.816368,127.413086 39.376812,127.305954 
	C26.587200,127.203995 13.792477,127.742874 1.000000,128.000000 
	C1.000000,107.312439 1.000000,86.624878 1.000000,65.468658 
z"/>
<path fill="#C61534" opacity="1.000000" stroke="none" 
	d="
M513.000000,412.531342 
	C342.630432,413.000000 172.260864,413.000000 1.445648,413.000000 
	C1.000000,397.645782 1.000000,382.291534 1.396186,366.402588 
	C7.002187,365.033295 12.647261,362.516510 17.327814,363.727539 
	C26.063696,365.987854 34.403172,364.605408 42.921539,364.057770 
	C45.055840,363.920563 47.477642,362.784515 49.253082,363.459686 
	C58.105297,366.826202 66.945099,364.577728 75.792465,363.994476 
	C77.597885,363.875488 79.620537,362.864258 81.148117,363.396912 
	C91.170433,366.891693 101.119865,364.664520 111.102875,363.491425 
	C112.057495,363.379242 113.205032,363.214447 113.989426,363.612823 
	C121.054359,367.200592 128.567856,364.986694 135.632980,364.511108 
	C143.868164,363.956696 151.559021,362.892029 158.318283,368.873230 
	C158.674500,369.188416 159.826462,368.604309 160.533005,368.802124 
	C158.920776,375.752380 156.222031,382.314789 156.082062,388.931305 
	C155.766632,403.840759 171.096283,411.107452 183.917511,407.100494 
	C193.447540,404.122101 197.501541,396.313141 200.700180,387.992126 
	C205.818787,374.676514 210.523834,361.201904 215.745636,347.799683 
	C216.255585,346.793030 216.423615,345.781158 216.630859,344.771057 
	C216.670074,344.772797 216.631805,344.704254 216.994904,344.711731 
	C220.114929,340.020172 223.339096,335.884216 229.448990,335.825043 
	C233.821274,335.782684 238.197495,335.913818 242.568222,336.071320 
	C244.166183,336.128937 245.771500,336.761719 247.342346,336.658478 
	C254.323074,336.199860 261.288513,335.210938 268.267517,335.132660 
	C272.611664,335.083893 276.962616,336.796173 281.324066,336.865601 
	C287.870117,336.969788 294.425476,336.171539 300.981964,336.063049 
	C304.428223,336.006012 307.882812,336.815826 311.337860,336.854126 
	C318.679260,336.935516 326.023376,336.768280 333.350769,336.735352 
	C333.335114,336.767731 333.406952,336.769867 333.211914,337.061127 
	C333.533905,338.171753 334.050995,338.991150 334.776428,340.091431 
	C340.842621,356.821655 346.561432,373.322205 352.602783,389.703857 
	C357.350464,402.577637 365.596710,409.611145 379.693176,407.814697 
	C391.468628,406.314056 399.568542,394.930786 396.731903,383.528137 
	C395.529388,378.694244 393.917755,373.962158 392.935883,369.142822 
	C399.780487,369.352692 406.179382,369.686707 412.582550,369.828247 
	C417.772369,369.942932 422.967285,369.822021 428.159943,369.813599 
	C433.747284,369.804504 439.334625,369.805511 444.921967,369.800720 
	C449.950653,369.796448 454.979340,369.796967 460.007996,369.782990 
	C465.756866,369.766998 471.506989,369.804932 477.254028,369.690704 
	C481.321655,369.609924 485.383270,369.203003 489.450653,369.140320 
	C497.299316,369.019257 505.150085,369.038757 513.000000,369.000000 
	C513.000000,383.354218 513.000000,397.708466 513.000000,412.531342 
M154.520050,381.768463 
	C154.573303,381.816711 154.626572,381.864960 154.520050,381.768463 
z"/>
<path fill="#CD1B2D" opacity="1.000000" stroke="none" 
	d="
M1.000000,306.000000 
	C1.000000,272.979095 1.000000,239.958206 1.400504,206.471344 
	C9.169497,206.629517 16.536217,207.276627 23.909063,207.844193 
	C24.691977,207.904465 25.501389,207.422226 26.314535,207.322861 
	C29.560423,206.926239 32.829227,206.172501 36.059044,206.303436 
	C42.613625,206.569138 49.145729,207.360336 55.694290,207.835892 
	C56.633282,207.904083 57.602039,207.353683 58.574715,207.206299 
	C61.331917,206.788559 64.120087,205.997925 66.856781,206.135529 
	C73.741867,206.481659 80.602867,207.289230 87.480339,207.824432 
	C88.425835,207.898010 89.402184,207.407852 90.377701,207.293365 
	C93.625107,206.912247 96.894890,206.185852 100.126396,206.317993 
	C106.681458,206.586105 113.214394,207.367142 119.763710,207.835068 
	C120.700455,207.901993 121.666115,207.325256 122.638344,207.179932 
	C125.396812,206.767593 128.187485,205.997635 130.926056,206.137955 
	C137.810867,206.490738 144.671402,207.300034 151.548798,207.834732 
	C152.491623,207.908051 153.466217,207.392014 154.441254,207.265366 
	C157.526291,206.864609 160.637115,206.101425 163.704178,206.237854 
	C170.423828,206.536713 177.119919,207.340195 183.833267,207.833908 
	C184.766541,207.902527 185.731445,207.316162 186.701752,207.150238 
	C189.128784,206.735229 191.572723,206.038651 194.000305,206.076065 
	C202.377014,206.205154 210.915970,205.217346 218.820084,209.360046 
	C216.896561,214.789154 215.022736,219.863235 213.148758,224.937256 
	C205.248001,246.329437 197.347183,267.721588 189.097626,289.102661 
	C188.517853,289.063873 188.286865,289.036224 187.581955,289.004578 
	C172.013504,289.000366 156.918823,288.967285 141.824661,289.041077 
	C139.909790,289.050476 137.997650,289.619507 135.748489,290.032928 
	C134.978180,290.656708 134.543625,291.176788 133.813019,291.874084 
	C125.433273,293.639984 120.284676,298.577911 117.030045,306.152405 
	C115.813171,306.346527 115.004639,306.687988 114.194908,306.690857 
	C103.149902,306.729828 92.103775,306.815521 81.059875,306.700745 
	C68.707382,306.572388 56.357773,306.147491 44.005283,306.042206 
	C29.671110,305.920013 15.335172,306.004974 1.000000,306.000000 
z"/>
<path fill="#D12027" opacity="1.000000" stroke="none" 
	d="
M218.869720,209.005005 
	C210.915970,205.217346 202.377014,206.205154 194.000305,206.076065 
	C191.572723,206.038651 189.128784,206.735229 186.701752,207.150238 
	C185.731445,207.316162 184.766541,207.902527 183.833267,207.833908 
	C177.119919,207.340195 170.423828,206.536713 163.704178,206.237854 
	C160.637115,206.101425 157.526291,206.864609 154.441254,207.265366 
	C153.466217,207.392014 152.491623,207.908051 151.548798,207.834732 
	C144.671402,207.300034 137.810867,206.490738 130.926056,206.137955 
	C128.187485,205.997635 125.396812,206.767593 122.638344,207.179932 
	C121.666115,207.325256 120.700455,207.901993 119.763710,207.835068 
	C113.214394,207.367142 106.681458,206.586105 100.126396,206.317993 
	C96.894890,206.185852 93.625107,206.912247 90.377701,207.293365 
	C89.402184,207.407852 88.425835,207.898010 87.480339,207.824432 
	C80.602867,207.289230 73.741867,206.481659 66.856781,206.135529 
	C64.120087,205.997925 61.331917,206.788559 58.574715,207.206299 
	C57.602039,207.353683 56.633282,207.904083 55.694290,207.835892 
	C49.145729,207.360336 42.613625,206.569138 36.059044,206.303436 
	C32.829227,206.172501 29.560423,206.926239 26.314535,207.322861 
	C25.501389,207.422226 24.691977,207.904465 23.909063,207.844193 
	C16.536217,207.276627 9.169497,206.629517 1.400504,206.002686 
	C1.000000,180.312439 1.000000,154.624878 1.000000,128.468658 
	C13.792477,127.742874 26.587200,127.203995 39.376812,127.305954 
	C52.816368,127.413086 66.248459,128.334641 79.688858,128.506790 
	C87.076546,128.601425 94.471581,127.732307 101.868996,127.586563 
	C107.272583,127.480095 112.684814,127.943031 118.094337,127.978859 
	C128.752396,128.049469 139.411270,127.999672 150.069794,127.999680 
	C160.728317,127.999695 171.386856,127.999702 182.045380,127.999718 
	C192.703903,127.999733 203.363113,127.925926 214.020752,128.023117 
	C222.536453,128.100784 231.067627,128.120667 239.558655,128.675583 
	C245.016525,129.032288 247.664764,125.525612 250.940735,122.524048 
	C249.476410,126.980431 247.602264,131.053650 246.049393,135.245880 
	C236.947891,159.816849 227.921478,184.415619 218.869720,209.005005 
z"/>
<path fill="#D12027" opacity="1.000000" stroke="none" 
	d="
M303.598663,126.309410 
	C307.927917,126.578705 312.255188,126.886597 316.586945,127.106323 
	C320.844543,127.322281 325.106262,127.572647 329.366852,127.584793 
	C335.449768,127.602142 341.533020,127.369843 347.616638,127.332657 
	C352.042511,127.305611 356.469543,127.482605 360.895538,127.459465 
	C367.300720,127.425987 373.705322,127.239059 380.110413,127.223015 
	C384.374390,127.212334 388.639099,127.468094 392.903076,127.456856 
	C399.308258,127.439972 405.712952,127.238152 412.118134,127.221870 
	C416.382050,127.211029 420.646667,127.470238 424.910583,127.458847 
	C431.315857,127.441742 437.720612,127.237221 444.125885,127.220718 
	C448.389740,127.209740 452.654297,127.472389 456.918121,127.460854 
	C463.323456,127.443527 469.728210,127.271683 476.133636,127.207703 
	C479.908386,127.169998 483.684113,127.240700 487.459106,127.215195 
	C495.680817,127.159637 503.902313,127.073715 512.561951,127.000107 
	C513.000000,152.020889 513.000000,177.041794 512.613342,202.516785 
	C509.973419,202.459595 507.716156,201.494659 505.467560,201.514450 
	C494.949738,201.607071 484.508301,202.523331 473.897491,201.680939 
	C463.311493,200.840561 452.615387,202.326691 441.856140,201.668488 
	C428.097137,200.826782 414.227203,201.853745 400.404205,201.983246 
	C391.052856,202.070862 381.699188,202.077103 372.348083,201.976822 
	C363.640808,201.883453 354.933289,201.397736 346.230377,201.493271 
	C342.268372,201.536774 338.317169,202.564896 335.612640,202.962433 
	C334.847107,205.856918 334.431183,207.429596 333.838684,208.679932 
	C323.640961,181.008194 313.619812,153.658798 303.598663,126.309410 
z"/>
<path fill="#CD1C2C" opacity="1.000000" stroke="none" 
	d="
M334.015228,209.002274 
	C334.431183,207.429596 334.847107,205.856918 335.612640,202.962433 
	C338.317169,202.564896 342.268372,201.536774 346.230377,201.493271 
	C354.933289,201.397736 363.640808,201.883453 372.348083,201.976822 
	C381.699188,202.077103 391.052856,202.070862 400.404205,201.983246 
	C414.227203,201.853745 428.097137,200.826782 441.856140,201.668488 
	C452.615387,202.326691 463.311493,200.840561 473.897491,201.680939 
	C484.508301,202.523331 494.949738,201.607071 505.467560,201.514450 
	C507.716156,201.494659 509.973419,202.459595 512.613342,202.985443 
	C513.000000,227.354233 513.000000,251.708450 512.582153,276.531860 
	C505.764282,277.240509 499.365723,277.617950 492.964020,277.681763 
	C486.219482,277.748962 479.472107,277.500610 472.725647,277.418854 
	C463.653015,277.308868 454.579926,277.148804 445.507202,277.159210 
	C439.442413,277.166199 433.378540,277.518433 427.313110,277.562958 
	C417.436523,277.635468 407.558990,277.595520 397.681885,277.578369 
	C390.771576,277.566376 383.839386,277.841766 376.957550,277.381592 
	C370.674500,276.961487 364.348328,275.443054 360.847595,282.681458 
	C351.786133,257.906281 342.900696,233.454269 334.015228,209.002274 
z"/>
<path fill="#CA1830" opacity="1.000000" stroke="none" 
	d="
M361.023590,283.004608 
	C364.348328,275.443054 370.674500,276.961487 376.957550,277.381592 
	C383.839386,277.841766 390.771576,277.566376 397.681885,277.578369 
	C407.558990,277.595520 417.436523,277.635468 427.313110,277.562958 
	C433.378540,277.518433 439.442413,277.166199 445.507202,277.159210 
	C454.579926,277.148804 463.653015,277.308868 472.725647,277.418854 
	C479.472107,277.500610 486.219482,277.748962 492.964020,277.681763 
	C499.365723,277.617950 505.764282,277.240509 512.582153,277.000488 
	C513.000000,297.354218 513.000000,317.708466 512.611694,338.517273 
	C499.977600,338.872314 487.731750,338.682922 475.486145,338.693726 
	C455.729767,338.711182 435.973572,338.865265 416.217255,338.951996 
	C406.935028,338.992767 397.652649,339.047882 388.370605,339.014465 
	C385.990295,339.005920 383.611145,338.685852 381.194824,338.470215 
	C381.158234,338.431519 381.193085,338.330841 381.325134,338.011536 
	C381.104889,337.184357 380.752594,336.676483 380.193787,335.888794 
	C376.793579,326.853851 373.477478,318.140839 370.448730,309.329041 
	C368.396759,303.359100 366.748535,297.250397 364.935059,290.808502 
	C364.192383,289.355499 363.434387,288.297760 362.810791,287.167969 
	C362.945221,287.095917 362.663574,287.212616 362.844482,286.917664 
	C362.499969,285.809235 361.974609,284.995789 361.282349,284.030579 
	C360.950806,283.601532 360.920166,283.310120 361.023590,283.004608 
z"/>
<path fill="#C71634" opacity="1.000000" stroke="none" 
	d="
M1.000000,306.468658 
	C15.335172,306.004974 29.671110,305.920013 44.005283,306.042206 
	C56.357773,306.147491 68.707382,306.572388 81.059875,306.700745 
	C92.103775,306.815521 103.149902,306.729828 114.194908,306.690857 
	C115.004639,306.687988 115.813171,306.346527 116.977493,306.588257 
	C114.701012,322.505219 124.405876,330.665100 136.245636,332.681061 
	C138.153320,333.334015 139.874832,333.922760 141.603348,333.944031 
	C149.755280,334.044189 157.910110,333.919189 166.061661,334.034119 
	C168.331467,334.066101 170.593582,334.644043 172.847946,335.336060 
	C169.405991,344.851349 165.975296,354.002136 162.241882,363.312805 
	C161.880676,364.096069 161.822189,364.719421 161.776855,365.433014 
	C161.790024,365.523254 161.656815,365.647827 161.300934,365.696045 
	C160.842987,366.614227 160.740936,367.484192 160.639664,368.378418 
	C160.640457,368.402679 160.607971,368.438843 160.607971,368.438843 
	C159.826462,368.604309 158.674500,369.188416 158.318283,368.873230 
	C151.559021,362.892029 143.868164,363.956696 135.632980,364.511108 
	C128.567856,364.986694 121.054359,367.200592 113.989426,363.612823 
	C113.205032,363.214447 112.057495,363.379242 111.102875,363.491425 
	C101.119865,364.664520 91.170433,366.891693 81.148117,363.396912 
	C79.620537,362.864258 77.597885,363.875488 75.792465,363.994476 
	C66.945099,364.577728 58.105297,366.826202 49.253082,363.459686 
	C47.477642,362.784515 45.055840,363.920563 42.921539,364.057770 
	C34.403172,364.605408 26.063696,365.987854 17.327814,363.727539 
	C12.647261,362.516510 7.002187,365.033295 1.396186,365.933899 
	C1.000000,346.312439 1.000000,326.624878 1.000000,306.468658 
z"/>
<path fill="#C71534" opacity="1.000000" stroke="none" 
	d="
M381.231445,338.508881 
	C383.611145,338.685852 385.990295,339.005920 388.370605,339.014465 
	C397.652649,339.047882 406.935028,338.992767 416.217255,338.951996 
	C435.973572,338.865265 455.729767,338.711182 475.486145,338.693726 
	C487.731750,338.682922 499.977600,338.872314 512.611694,338.985931 
	C513.000000,348.687561 513.000000,358.375122 513.000000,368.531311 
	C505.150085,369.038757 497.299316,369.019257 489.450653,369.140320 
	C485.383270,369.203003 481.321655,369.609924 477.254028,369.690704 
	C471.506989,369.804932 465.756866,369.766998 460.007996,369.782990 
	C454.979340,369.796967 449.950653,369.796448 444.921967,369.800720 
	C439.334625,369.805511 433.747284,369.804504 428.159943,369.813599 
	C422.967285,369.822021 417.772369,369.942932 412.582550,369.828247 
	C406.179382,369.686707 399.780487,369.352692 392.718689,368.868439 
	C388.448914,358.592987 384.840179,348.550934 381.231445,338.508881 
z"/>
<path fill="#FEFDFD" opacity="1.000000" stroke="none" 
	d="
M381.194824,338.470215 
	C384.840179,348.550934 388.448914,358.592987 392.274841,368.909424 
	C393.917755,373.962158 395.529388,378.694244 396.731903,383.528137 
	C399.568542,394.930786 391.468628,406.314056 379.693176,407.814697 
	C365.596710,409.611145 357.350464,402.577637 352.602783,389.703857 
	C346.561432,373.322205 340.842621,356.821655 334.714508,339.764740 
	C334.098480,338.361389 333.752716,337.565613 333.406952,336.769867 
	C333.406952,336.769867 333.335114,336.767731 333.319702,336.361542 
	C327.989868,321.258331 322.675385,306.561310 317.326599,291.482697 
	C303.811371,253.455307 290.330475,215.809525 276.531403,177.275177 
	C271.914886,190.053467 267.590149,201.894791 263.357422,213.768906 
	C256.111237,234.096649 248.922592,254.444916 241.851288,274.852051 
	C241.992798,274.919525 241.703323,274.802460 241.474396,275.025024 
	C241.042252,276.067719 240.839035,276.887848 240.668427,277.748108 
	C240.701050,277.788269 240.599548,277.768311 240.370728,278.008759 
	C239.896790,279.099823 239.651657,279.950470 239.241638,280.958069 
	C238.913284,281.397308 238.887070,281.691772 238.836777,282.296509 
	C238.142639,284.059998 237.609833,285.525482 236.953171,287.289673 
	C236.593094,288.405029 236.356888,289.221710 236.215424,290.471008 
	C239.456757,290.992798 242.602890,291.104370 245.750000,291.167114 
	C257.825531,291.407959 269.901367,291.633087 282.390320,291.946411 
	C294.015503,292.073395 300.638123,302.983826 300.197998,313.331451 
	C299.724030,324.475403 289.492218,332.362091 279.463928,332.421265 
	C260.926086,332.397430 242.847824,332.392700 224.770599,332.526001 
	C223.230011,332.537384 221.696228,333.468506 220.037918,334.331879 
	C218.821640,338.028992 217.726715,341.366638 216.631805,344.704254 
	C216.631805,344.704254 216.670074,344.772797 216.403000,345.010803 
	C215.891846,346.097351 215.647766,346.945923 215.403687,347.794495 
	C210.523834,361.201904 205.818787,374.676514 200.700180,387.992126 
	C197.501541,396.313141 193.447540,404.122101 183.917511,407.100494 
	C171.096283,411.107452 155.766632,403.840759 156.082062,388.931305 
	C156.222031,382.314789 158.920776,375.752380 160.533005,368.802124 
	C160.607971,368.438843 160.640457,368.402679 160.825714,368.151093 
	C161.226257,367.148956 161.441528,366.398376 161.656799,365.647827 
	C161.656815,365.647827 161.790024,365.523254 161.941803,365.189026 
	C162.243942,364.287506 162.394287,363.720215 162.544617,363.152893 
	C165.975296,354.002136 169.405991,344.851349 172.989868,335.064728 
	C173.169907,334.030823 173.196747,333.632782 173.396164,333.110413 
	C173.356857,332.940796 173.144974,332.895538 172.497131,332.684540 
	C160.061676,332.464355 148.062180,332.409882 136.062698,332.355408 
	C124.405876,330.665100 114.701012,322.505219 117.385277,306.578186 
	C120.284676,298.577911 125.433273,293.639984 134.276459,291.861267 
	C137.510574,291.504517 139.984772,291.201569 142.459915,291.193390 
	C156.546143,291.146820 170.633331,291.235535 184.718002,291.080048 
	C186.301178,291.062592 187.870605,289.799316 189.446411,289.113770 
	C197.347183,267.721588 205.248001,246.329437 213.148758,224.937256 
	C215.022736,219.863235 216.896561,214.789154 218.820099,209.360046 
	C227.921478,184.415619 236.947891,159.816849 246.049393,135.245880 
	C247.602264,131.053650 249.476410,126.980431 251.308426,122.502472 
	C259.324738,106.911987 275.935394,104.091690 288.326233,109.433037 
	C289.463501,109.928551 290.046326,110.156059 290.629120,110.383575 
	C290.629120,110.383575 290.922546,110.032021 290.954163,110.464706 
	C291.841797,111.409454 292.697815,111.921524 293.553802,112.433594 
	C293.553802,112.433586 293.899353,112.247307 293.853607,112.564804 
	C294.105927,113.053444 294.403961,113.224602 294.702026,113.395752 
	C294.702026,113.395760 294.725159,113.281960 294.777710,113.542816 
	C295.131836,113.992554 295.433411,114.181442 295.735016,114.370331 
	C295.735016,114.370338 295.754822,114.246910 295.793243,114.511154 
	C296.123291,114.978699 296.414886,115.181984 296.706512,115.385277 
	C296.706512,115.385277 296.727631,115.269783 296.764679,115.530807 
	C297.077789,116.003067 297.353851,116.214302 297.629913,116.425537 
	C297.629913,116.425529 297.792816,116.059959 297.814636,116.546310 
	C299.420654,119.440514 301.004852,121.848381 302.589081,124.256241 
	C302.589081,124.256233 302.650024,124.248497 302.688141,124.558464 
	C303.001984,125.335205 303.277740,125.801971 303.553467,126.268745 
	C303.553467,126.268745 303.572510,126.293007 303.585571,126.301208 
	C313.619812,153.658798 323.640961,181.008194 333.838684,208.679932 
	C342.900696,233.454269 351.786133,257.906281 360.847595,282.681458 
	C360.920166,283.310120 360.950806,283.601532 361.346100,284.358398 
	C361.939026,285.629456 362.301300,286.421051 362.663574,287.212616 
	C362.663574,287.212616 362.945221,287.095917 362.828674,287.516602 
	C363.447998,289.026123 364.183868,290.114929 364.919739,291.203735 
	C366.748535,297.250397 368.396759,303.359100 370.448730,309.329041 
	C373.477478,318.140839 376.793579,326.853851 380.250549,336.173706 
	C380.740173,337.269226 380.966644,337.800049 381.193085,338.330841 
	C381.193085,338.330841 381.158234,338.431519 381.194824,338.470215 
z"/>
<path fill="#D12027" opacity="1.000000" stroke="none" 
	d="
M302.767944,123.973541 
	C301.004852,121.848381 299.420654,119.440514 297.716431,116.720688 
	C301.848053,117.022629 303.155487,119.799782 302.767944,123.973541 
z"/>
<path fill="#D12027" opacity="1.000000" stroke="none" 
	d="
M293.588806,112.056213 
	C292.697815,111.921524 291.841797,111.409454 290.816650,110.647598 
	C291.639618,110.824814 292.631714,111.251816 293.588806,112.056213 
z"/>
<path fill="#D12027" opacity="1.000000" stroke="none" 
	d="
M303.713440,126.025200 
	C303.277740,125.801971 303.001984,125.335205 302.688232,124.589188 
	C303.057953,124.800514 303.465668,125.291084 303.713440,126.025200 
z"/>
<path fill="#D12027" opacity="1.000000" stroke="none" 
	d="
M290.674286,110.094856 
	C290.046326,110.156059 289.463501,109.928551 288.697113,109.443756 
	C289.248840,109.393036 289.984131,109.599586 290.674286,110.094856 
z"/>
<path fill="#D12027" opacity="1.000000" stroke="none" 
	d="
M297.564880,116.157578 
	C297.353851,116.214302 297.077789,116.003067 296.707245,115.542976 
	C296.908447,115.492622 297.204163,115.691124 297.564880,116.157578 
z"/>
<path fill="#D12027" opacity="1.000000" stroke="none" 
	d="
M296.621307,115.121490 
	C296.414886,115.181984 296.123291,114.978699 295.731689,114.521896 
	C295.933167,114.464828 296.234619,114.661270 296.621307,115.121490 
z"/>
<path fill="#D12027" opacity="1.000000" stroke="none" 
	d="
M295.638458,114.110596 
	C295.433411,114.181442 295.131836,113.992554 294.720825,113.554596 
	C294.921600,113.487297 295.231750,113.669075 295.638458,114.110596 
z"/>
<path fill="#D12027" opacity="1.000000" stroke="none" 
	d="
M294.607544,113.138214 
	C294.403961,113.224602 294.105927,113.053444 293.683044,112.651962 
	C293.876495,112.574654 294.194763,112.727669 294.607544,113.138214 
z"/>
<path fill="#CA1930" opacity="1.000000" stroke="none" 
	d="
M279.923737,332.476807 
	C289.492218,332.362091 299.724030,324.475403 300.197998,313.331451 
	C300.638123,302.983826 294.015503,292.073395 282.369507,291.653992 
	C281.609314,290.809448 281.283264,290.339600 280.619476,289.638245 
	C268.188416,289.271912 256.093323,289.210022 244.003723,288.919189 
	C242.304077,288.878296 240.631393,287.716980 239.094101,286.769714 
	C239.160675,284.976257 239.079391,283.487366 238.998108,281.998474 
	C238.887070,281.691772 238.913284,281.397308 239.583176,280.960388 
	C240.259567,279.793243 240.429550,278.780792 240.599548,277.768311 
	C240.599548,277.768311 240.701050,277.788269 240.990112,277.768982 
	C241.420547,276.767273 241.561935,275.784851 241.703323,274.802460 
	C241.703323,274.802460 241.992798,274.919525 242.295837,274.903320 
	C250.490921,274.353119 258.376129,273.558929 266.276764,273.351440 
	C276.003662,273.096008 285.779236,273.855133 295.466949,273.195160 
	C304.121613,272.605530 309.036865,275.027954 312.219574,282.930969 
	C313.490601,286.087036 315.621460,288.896851 317.360901,291.864288 
	C322.675385,306.561310 327.989868,321.258331 333.335358,336.329163 
	C326.023376,336.768280 318.679260,336.935516 311.337860,336.854126 
	C307.882812,336.815826 304.428223,336.006012 300.981964,336.063049 
	C294.425476,336.171539 287.870117,336.969788 281.324066,336.865601 
	C276.962616,336.796173 272.611664,335.083893 268.267517,335.132660 
	C261.288513,335.210938 254.323074,336.199860 247.342346,336.658478 
	C245.771500,336.761719 244.166183,336.128937 242.568222,336.071320 
	C238.197495,335.913818 233.821274,335.782684 229.448990,335.825043 
	C223.339096,335.884216 220.114929,340.020172 216.994904,344.711731 
	C217.726715,341.366638 218.821640,338.028992 220.496399,334.330994 
	C238.900299,333.974854 256.724640,334.021942 274.548065,333.917419 
	C276.342743,333.906891 278.131989,332.978973 279.923737,332.476807 
z"/>
<path fill="#CA1930" opacity="1.000000" stroke="none" 
	d="
M333.211914,337.061127 
	C333.752716,337.565613 334.098480,338.361389 334.506165,339.483826 
	C334.050995,338.991150 333.533905,338.171753 333.211914,337.061127 
z"/>
<path fill="#CA1930" opacity="1.000000" stroke="none" 
	d="
M215.745621,347.799683 
	C215.647766,346.945923 215.891846,346.097351 216.363785,345.009033 
	C216.423615,345.781158 216.255585,346.793030 215.745621,347.799683 
z"/>
<path fill="#C71634" opacity="1.000000" stroke="none" 
	d="
M154.599945,381.840820 
	C154.626572,381.864960 154.573303,381.816711 154.599945,381.840820 
z"/>
<path fill="#C60001" opacity="1.000000" stroke="none" 
	d="
M189.097626,289.102661 
	C187.870605,289.799316 186.301178,291.062592 184.718002,291.080048 
	C170.633331,291.235535 156.546143,291.146820 142.459915,291.193390 
	C139.984772,291.201569 137.510574,291.504517 134.572510,291.684113 
	C134.543625,291.176788 134.978180,290.656708 136.207352,290.052734 
	C152.285797,289.978943 167.569778,290.020691 182.853287,289.955383 
	C184.588791,289.947968 186.321747,289.338745 188.055878,289.008575 
	C188.286865,289.036224 188.517853,289.063873 189.097626,289.102661 
z"/>
<path fill="#CC2F3D" opacity="1.000000" stroke="none" 
	d="
M187.581955,289.004578 
	C186.321747,289.338745 184.588791,289.947968 182.853287,289.955383 
	C167.569778,290.020691 152.285797,289.978943 136.543106,289.949066 
	C137.997650,289.619507 139.909790,289.050476 141.824661,289.041077 
	C156.918823,288.967285 172.013504,289.000366 187.581955,289.004578 
z"/>
<path fill="#CD1C2C" opacity="1.000000" stroke="none" 
	d="
M364.935059,290.808502 
	C364.183868,290.114929 363.447998,289.026123 362.694275,287.588654 
	C363.434387,288.297760 364.192383,289.355499 364.935059,290.808502 
z"/>
<path fill="#CD1C2C" opacity="1.000000" stroke="none" 
	d="
M362.844482,286.917664 
	C362.301300,286.421051 361.939026,285.629456 361.513000,284.510101 
	C361.974609,284.995789 362.499969,285.809235 362.844482,286.917664 
z"/>
<path fill="#C71534" opacity="1.000000" stroke="none" 
	d="
M381.325134,338.011536 
	C380.966644,337.800049 380.740173,337.269226 380.457001,336.453522 
	C380.752594,336.676483 381.104889,337.184357 381.325134,338.011536 
z"/>
<path fill="#C50003" opacity="1.000000" stroke="none" 
	d="
M136.245636,332.681061 
	C148.062180,332.409882 160.061676,332.464355 172.523453,332.815552 
	C172.985748,333.112305 173.223602,333.234741 173.223602,333.234741 
	C173.196747,333.632782 173.169907,334.030823 173.001144,334.700195 
	C170.593582,334.644043 168.331467,334.066101 166.061661,334.034119 
	C157.910110,333.919189 149.755280,334.044189 141.603348,333.944031 
	C139.874832,333.922760 138.153320,333.334015 136.245636,332.681061 
z"/>
<path fill="#C61534" opacity="1.000000" stroke="none" 
	d="
M161.300934,365.696045 
	C161.441528,366.398376 161.226257,367.148956 160.824921,368.126831 
	C160.740936,367.484192 160.842987,366.614227 161.300934,365.696045 
z"/>
<path fill="#C61534" opacity="1.000000" stroke="none" 
	d="
M162.241882,363.312805 
	C162.394287,363.720215 162.243942,364.287506 161.928650,365.098816 
	C161.822189,364.719421 161.880676,364.096069 162.241882,363.312805 
z"/>
<path fill="#CD1C2C" opacity="1.000000" stroke="none" 
	d="
M317.326599,291.482697 
	C315.621460,288.896851 313.490601,286.087036 312.219574,282.930969 
	C309.036865,275.027954 304.121613,272.605530 295.466949,273.195160 
	C285.779236,273.855133 276.003662,273.096008 266.276764,273.351440 
	C258.376129,273.558929 250.490921,274.353119 242.154327,274.835815 
	C248.922592,254.444916 256.111237,234.096649 263.357422,213.768906 
	C267.590149,201.894791 271.914886,190.053467 276.531403,177.275177 
	C290.330475,215.809525 303.811371,253.455307 317.326599,291.482697 
z"/>
<path fill="#C50001" opacity="1.000000" stroke="none" 
	d="
M279.463928,332.421295 
	C278.131989,332.978973 276.342743,333.906891 274.548065,333.917419 
	C256.724640,334.021942 238.900299,333.974854 220.617737,333.971497 
	C221.696228,333.468506 223.230011,332.537384 224.770599,332.526001 
	C242.847824,332.392700 260.926086,332.397430 279.463928,332.421295 
z"/>
<path fill="#CC313F" opacity="1.000000" stroke="none" 
	d="
M238.946243,287.074280 
	C240.631393,287.716980 242.304077,288.878296 244.003723,288.919189 
	C256.093323,289.210022 268.188416,289.271912 280.155853,289.675812 
	C265.393524,289.976044 250.757111,290.007202 236.120667,290.038361 
	C236.356888,289.221710 236.593094,288.405029 237.264832,287.308044 
	C238.115662,287.043243 238.530945,287.058746 238.946243,287.074280 
z"/>
<path fill="#C60001" opacity="1.000000" stroke="none" 
	d="
M236.215424,290.471008 
	C250.757111,290.007202 265.393524,289.976044 280.493591,289.907349 
	C281.283264,290.339600 281.609314,290.809448 281.956238,291.571655 
	C269.901367,291.633087 257.825531,291.407959 245.750000,291.167114 
	C242.602890,291.104370 239.456757,290.992798 236.215424,290.471008 
z"/>
<path fill="#CD1C2C" opacity="1.000000" stroke="none" 
	d="
M239.094101,286.769714 
	C238.530945,287.058746 238.115662,287.043243 237.388702,287.009338 
	C237.609833,285.525482 238.142639,284.059998 238.836792,282.296509 
	C239.079391,283.487366 239.160675,284.976257 239.094101,286.769714 
z"/>
<path fill="#CD1C2C" opacity="1.000000" stroke="none" 
	d="
M240.370728,278.008759 
	C240.429550,278.780792 240.259567,279.793243 239.748047,280.803406 
	C239.651657,279.950470 239.896790,279.099823 240.370728,278.008759 
z"/>
<path fill="#CD1C2C" opacity="1.000000" stroke="none" 
	d="
M241.474396,275.025024 
	C241.561935,275.784851 241.420547,276.767273 240.957489,277.728821 
	C240.839035,276.887848 241.042252,276.067719 241.474396,275.025024 
z"/>
<path fill="#C71634" opacity="1.000000" stroke="none" 
	d="
M173.396164,333.110413 
	C173.223602,333.234741 172.985748,333.112305 172.959427,332.981262 
	C173.144974,332.895538 173.356857,332.940796 173.396164,333.110413 
z"/>
</svg>